<svg width="37" height="37" viewBox="0 0 37 37" fill="none" xmlns="http://www.w3.org/2000/svg">
<path d="M18.5 36C28.165 36 36 28.165 36 18.5C36 8.83502 28.165 1 18.5 1C8.83502 1 1 8.83502 1 18.5C1 28.165 8.83502 36 18.5 36Z" stroke="#DCDFE5"/>
<path d="M22.694 17.1632L16.457 12.8456C15.381 12.1007 14.5 12.6005 14.5 13.9557V23.0421C14.5 24.3974 15.382 24.8988 16.46 24.1567L22.691 19.8675C23.769 19.1246 23.77 17.9081 22.694 17.1632ZM21.862 18.9615L16.324 22.7739C15.965 23.0216 15.671 22.8544 15.671 22.4027V14.5947C15.671 14.143 15.965 13.9767 16.324 14.2251L21.864 18.0601C22.222 18.3081 22.222 18.7139 21.862 18.9615Z" fill="#5D6678"/>
</svg>
